<?xml version="1.0" ?><svg viewBox="0 0 64 64" xmlns="http://www.w3.org/2000/svg"><defs><style>.cls-1{fill:#756d78;}.cls-2{fill:#f7f8fa;}.cls-3{fill:#dbe4eb;}.cls-4{fill:#e7ecf0;}</style></defs><g id="Shell"><path class="cls-1" d="M26.58,50l-4,.8a3.62,3.62,0,0,1-4.32-3.67l.12-3.6h27.3l.12,3.6a3.62,3.62,0,0,1-4.32,3.67l-4-.8Z" id="path142758-4"/><path class="cls-2" d="M36.9,14.64a6,6,0,0,1,3.22-.13,6.19,6.19,0,0,1,4,3.47,5.72,5.72,0,0,1,3.06.7A6,6,0,0,1,50,23.14a5.62,5.62,0,0,1,2.45,1.38A6,6,0,0,1,54,30.21a5.48,5.48,0,0,1,1.28,1.5,5.73,5.73,0,0,1-2.11,7.87l-13.2,7A8.33,8.33,0,0,1,32,51.84a8.33,8.33,0,0,1-7.92-5.3l-13.2-7a5.73,5.73,0,0,1-2.11-7.87,5.48,5.48,0,0,1,1.28-1.5,6,6,0,0,1,1.46-5.69A5.62,5.62,0,0,1,14,23.14a6,6,0,0,1,2.9-4.46,5.72,5.72,0,0,1,3.06-.7,6.19,6.19,0,0,1,4-3.47,6,6,0,0,1,3.22.13,6.08,6.08,0,0,1,9.8,0Z" id="path142238-9"/><path class="cls-3" d="M32,30.51A11.51,11.51,0,0,0,20.86,44.84l3.21,1.7a8.58,8.58,0,0,0,15.86,0l3.21-1.7A11.51,11.51,0,0,0,32,30.51Z" id="path135214-3"/><path class="cls-4" d="M32,41.15c-5.81,0-7.93,5.39-7.93,5.39a8.58,8.58,0,0,0,15.86,0S37.81,41.15,32,41.15Z" id="path139068-1"/><path class="cls-4" d="M27.78,18.07A1,1,0,0,0,27,19.25h0l1.58,7.9a1,1,0,0,0,1.17.78h0a1,1,0,0,0,.79-1.18h0L29,18.86A1,1,0,0,0,27.78,18.07Z" id="path142236"/><path class="cls-4" d="M21,20.36a1,1,0,0,0-.48,1.33L24,29a1,1,0,1,0,1.8-.86h0l-3.43-7.25A1,1,0,0,0,21,20.36Z" id="path144651"/><path class="cls-4" d="M13.79,31.5a1,1,0,0,0-1.38.28h0a1,1,0,0,0,.27,1.38l4.93,3.29A1,1,0,0,0,19,36.18h0a1,1,0,0,0-.28-1.38h0Z" id="path144643"/><path class="cls-4" d="M36.22,18.07a1,1,0,0,0-1.18.78h0l-1.58,7.89a1,1,0,0,0,.79,1.18h0a1,1,0,0,0,1.18-.78h0L37,19.25a1,1,0,0,0-.78-1.18Z" id="path144639"/><path class="cls-4" d="M43,20.36a1,1,0,0,0-1.33.48L38.2,28.09A1,1,0,0,0,40,29h0l3.43-7.26A1,1,0,0,0,43,20.36Z" id="path144635"/><path class="cls-4" d="M47.53,24.91a1,1,0,0,0-.69.34l-4.77,5.38A1,1,0,0,0,42.16,32h0A1,1,0,0,0,43.57,32h0l4.77-5.39a1,1,0,0,0-.09-1.41h0A1,1,0,0,0,47.53,24.91Z" id="path144631"/><path class="cls-4" d="M50.21,31.5l-4.93,3.29A1,1,0,0,0,45,36.17h0a1,1,0,0,0,1.38.28l4.93-3.29a1,1,0,1,0-1.11-1.66Z" id="path145768"/><path class="cls-4" d="M16.47,24.91a1.06,1.06,0,0,0-.72.25,1,1,0,0,0-.09,1.41h0L20.43,32a1,1,0,0,0,1.41.08,1,1,0,0,0,.09-1.41h0l-4.77-5.38A1,1,0,0,0,16.47,24.91Z" id="path146339"/></g></svg>