<?xml version="1.0" standalone="no"?>
<!DOCTYPE svg PUBLIC "-//W3C//DTD SVG 20010904//EN"
 "http://www.w3.org/TR/2001/REC-SVG-20010904/DTD/svg10.dtd">
<svg version="1.0" xmlns="http://www.w3.org/2000/svg"
 width="237.000000pt" height="272.000000pt" viewBox="0 0 237.000000 272.000000"
 preserveAspectRatio="xMidYMid meet">
<metadata>
Created by potrace 1.10, written by Peter Selinger 2001-2011
</metadata>
<g transform="translate(0.000000,272.000000) scale(0.100000,-0.100000)"
fill="#000000" stroke="none">
<path d="M1251 2433 c-55 -19 -124 -87 -141 -137 -7 -21 -10 -66 -8 -102 5
-84 41 -138 115 -174 29 -14 55 -29 59 -33 4 -4 -30 -4 -77 -1 -77 6 -90 4
-135 -18 -62 -31 -316 -177 -328 -189 -6 -5 -48 -9 -95 -10 -108 0 -218 -12
-230 -25 -9 -8 -83 -328 -85 -368 -1 -21 126 -98 244 -147 41 -17 89 -44 105
-59 45 -42 70 -51 133 -49 46 2 135 -14 150 -27 2 -1 -14 -62 -36 -136 -146
-487 -147 -492 -133 -538 14 -47 68 -97 115 -105 43 -9 118 23 142 60 9 15 30
70 45 123 15 53 51 176 79 272 29 96 58 197 66 224 7 26 15 50 18 53 2 3 21
-8 40 -24 l36 -28 0 -283 c0 -310 1 -316 60 -365 46 -39 90 -44 147 -16 82 41
83 46 83 395 l0 301 73 6 c76 7 288 48 366 71 78 23 121 44 121 59 0 14 -79
88 -180 169 -124 98 -405 258 -511 289 l-38 12 2 111 c2 107 1 113 -26 153
-25 37 -77 73 -105 73 -5 0 -12 6 -15 13 -3 9 9 11 47 9 45 -3 58 1 101 30 72
48 108 121 102 205 -8 106 -71 184 -173 212 -51 14 -79 13 -133 -6z m156 -64
c115 -55 128 -218 25 -297 -30 -23 -45 -27 -102 -27 -57 0 -72 4 -103 28 -20
15 -42 38 -48 50 -50 92 -17 201 73 246 54 27 100 27 155 0z m-150 -438 c71
-11 105 -32 129 -80 14 -30 15 -56 5 -260 -6 -124 -14 -251 -16 -282 l-6 -56
90 -67 c49 -37 92 -74 95 -82 3 -9 6 -166 6 -350 l0 -335 -25 -24 c-34 -35
-78 -33 -116 4 l-29 29 0 299 -1 298 -102 71 c-56 39 -120 81 -142 94 -57 33
-93 69 -118 115 -20 37 -22 52 -19 193 3 148 2 152 -18 152 -11 0 -38 -11 -60
-25 -45 -29 -46 -32 -54 -248 -3 -76 -11 -147 -17 -158 -6 -12 -26 -27 -45
-35 -41 -17 -75 -6 -106 36 -17 24 -17 37 -7 240 7 145 15 222 24 236 8 12 51
43 97 69 46 26 124 72 174 101 136 80 143 82 261 65z m-601 -258 c-3 -27 -8
-130 -12 -230 -3 -101 -9 -183 -13 -183 -3 0 -60 29 -126 64 -72 38 -119 68
-119 77 4 35 66 295 72 301 4 4 45 9 92 11 47 1 91 4 98 5 11 2 13 -9 8 -45z
m299 -225 c0 -121 2 -137 23 -174 21 -36 23 -45 12 -82 -12 -47 -10 -46 -62
-32 l-37 11 19 32 c18 28 20 51 20 198 0 153 3 179 19 179 4 0 6 -60 6 -132z
m560 105 c198 -90 381 -205 554 -352 l34 -28 -129 -32 c-71 -17 -165 -35 -209
-41 -44 -6 -94 -13 -111 -15 -28 -5 -32 -2 -46 33 -11 29 -35 53 -97 98 l-82
59 6 74 c3 41 5 109 5 153 0 43 3 78 7 78 4 0 34 -12 68 -27z m-369 -430 l61
-37 -13 -36 c-7 -19 -38 -123 -69 -230 -31 -107 -65 -222 -75 -255 -10 -33
-24 -80 -30 -104 -23 -87 -89 -116 -149 -65 -37 31 -40 63 -12 150 11 32 38
124 61 204 23 80 57 197 76 260 19 63 37 130 40 148 6 31 8 32 28 18 11 -8 48
-32 82 -53z"/>
</g>
</svg>
